<svg xmlns="http://www.w3.org/2000/svg" xmlns:xlink="http://www.w3.org/1999/xlink" width="1853" zoomAndPan="magnify" viewBox="0 0 1389.75 1216.499964" height="1622" preserveAspectRatio="xMidYMid meet" version="1.0"><defs><clipPath id="bb1b7f936f"><path d="M 0.160156 0 L 1389.339844 0 L 1389.339844 1216 L 0.160156 1216 Z M 0.160156 0 " clip-rule="nonzero"/></clipPath><clipPath id="39efd9a119"><path d="M 0.160156 0 L 1388 0 L 1388 1216 L 0.160156 1216 Z M 0.160156 0 " clip-rule="nonzero"/></clipPath><clipPath id="a3e37b48ee"><rect x="0" width="1390" y="0" height="1216"/></clipPath><clipPath id="1e976c41a5"><path d="M 1024.277344 0 L 1351.851562 0 L 1351.851562 1216 L 1024.277344 1216 Z M 1024.277344 0 " clip-rule="nonzero"/></clipPath><clipPath id="7f2574a4ba"><path d="M 1269.957031 1215.996094 C 1315.214844 1215.996094 1351.851562 1179.304688 1351.851562 1134.1875 L 1351.851562 -0.00390625 L 1188.0625 -0.00390625 L 1188.0625 81.808594 C 1188.0625 36.59375 1151.332031 -0.00390625 1106.167969 -0.00390625 C 1060.910156 -0.00390625 1024.277344 36.691406 1024.277344 81.808594 L 1024.277344 1215.902344 L 1188.0625 1215.902344 L 1188.0625 1134.039062 C 1188.0625 1179.304688 1224.792969 1215.996094 1269.957031 1215.996094 Z M 1269.957031 1215.996094 " clip-rule="nonzero"/></clipPath><clipPath id="a3eab928ef"><path d="M 0.277344 0 L 327.851562 0 L 327.851562 1216 L 0.277344 1216 Z M 0.277344 0 " clip-rule="nonzero"/></clipPath><clipPath id="2a4f4a6416"><path d="M 245.957031 1215.996094 C 291.214844 1215.996094 327.851562 1179.304688 327.851562 1134.1875 L 327.851562 -0.00390625 L 164.0625 -0.00390625 L 164.0625 81.808594 C 164.0625 36.59375 127.332031 -0.00390625 82.167969 -0.00390625 C 36.910156 -0.00390625 0.277344 36.691406 0.277344 81.808594 L 0.277344 1215.902344 L 164.0625 1215.902344 L 164.0625 1134.039062 C 164.0625 1179.304688 200.792969 1215.996094 245.957031 1215.996094 Z M 245.957031 1215.996094 " clip-rule="nonzero"/></clipPath><clipPath id="42110b2de7"><rect x="0" width="328" y="0" height="1216"/></clipPath><clipPath id="2f1048b568"><path d="M 38.390625 0 L 365.96875 0 L 365.96875 1216 L 38.390625 1216 Z M 38.390625 0 " clip-rule="nonzero"/></clipPath><clipPath id="551d80d71c"><path d="M 284.074219 1215.996094 C 329.332031 1215.996094 365.96875 1179.304688 365.96875 1134.1875 L 365.96875 -0.00390625 L 202.179688 -0.00390625 L 202.179688 81.808594 C 202.179688 36.59375 165.449219 -0.00390625 120.285156 -0.00390625 C 75.027344 -0.00390625 38.390625 36.691406 38.390625 81.808594 L 38.390625 1215.902344 L 202.179688 1215.902344 L 202.179688 1134.039062 C 202.179688 1179.304688 238.910156 1215.996094 284.074219 1215.996094 Z M 284.074219 1215.996094 " clip-rule="nonzero"/></clipPath><clipPath id="fe473fa0dd"><path d="M 0.390625 0 L 327.96875 0 L 327.96875 1216 L 0.390625 1216 Z M 0.390625 0 " clip-rule="nonzero"/></clipPath><clipPath id="ac7cc80ef3"><path d="M 246.074219 1215.996094 C 291.332031 1215.996094 327.96875 1179.304688 327.96875 1134.1875 L 327.96875 -0.00390625 L 164.179688 -0.00390625 L 164.179688 81.808594 C 164.179688 36.59375 127.449219 -0.00390625 82.285156 -0.00390625 C 37.027344 -0.00390625 0.390625 36.691406 0.390625 81.808594 L 0.390625 1215.902344 L 164.179688 1215.902344 L 164.179688 1134.039062 C 164.179688 1179.304688 200.910156 1215.996094 246.074219 1215.996094 Z M 246.074219 1215.996094 " clip-rule="nonzero"/></clipPath><clipPath id="07bb297606"><rect x="0" width="328" y="0" height="1216"/></clipPath></defs><g clip-path="url(#bb1b7f936f)"><path fill="#ffffff" d="M 0.160156 0 L 1389.339844 0 L 1389.339844 1216 L 0.160156 1216 Z M 0.160156 0 " fill-opacity="1" fill-rule="nonzero"/><path fill="#ffffff" d="M 0.160156 0 L 1389.339844 0 L 1389.339844 1216 L 0.160156 1216 Z M 0.160156 0 " fill-opacity="1" fill-rule="nonzero"/><g transform="matrix(1, 0, 0, 1, -0.000000000000000028, 0)"><g clip-path="url(#a3e37b48ee)"><g clip-path="url(#39efd9a119)"><path fill="#fffcf2" d="M 0.160156 0 L 1387.160156 0 L 1387.160156 1216 L 0.160156 1216 Z M 0.160156 0 " fill-opacity="1" fill-rule="nonzero"/></g></g></g></g><g clip-path="url(#1e976c41a5)"><g clip-path="url(#7f2574a4ba)"><g transform="matrix(1, 0, 0, 1, 1024, 0)"><g clip-path="url(#42110b2de7)"><g clip-path="url(#a3eab928ef)"><g clip-path="url(#2a4f4a6416)"><path fill="#004aad" d="M 327.851562 -0.00390625 L 327.851562 1215.609375 L 0.277344 1215.609375 L 0.277344 -0.00390625 Z M 327.851562 -0.00390625 " fill-opacity="1" fill-rule="nonzero"/></g></g></g></g></g></g><g clip-path="url(#2f1048b568)"><g clip-path="url(#551d80d71c)"><g transform="matrix(1, 0, 0, 1, 38, 0)"><g clip-path="url(#07bb297606)"><g clip-path="url(#fe473fa0dd)"><g clip-path="url(#ac7cc80ef3)"><path fill="#004aad" d="M 327.96875 -0.00390625 L 327.96875 1215.609375 L 0.390625 1215.609375 L 0.390625 -0.00390625 Z M 327.96875 -0.00390625 " fill-opacity="1" fill-rule="nonzero"/></g></g></g></g></g></g></svg>